<svg width="17" height="17" viewBox="0 0 17 17" fill="none" xmlns="http://www.w3.org/2000/svg">
<path fill-rule="evenodd" clip-rule="evenodd" d="M8.14614 5.14592C8.19259 5.09935 8.24776 5.06241 8.30851 5.0372C8.36926 5.012 8.43438 4.99902 8.50014 4.99902C8.56591 4.99902 8.63103 5.012 8.69178 5.0372C8.75252 5.06241 8.8077 5.09935 8.85414 5.14592L14.8541 11.1459C14.948 11.2398 15.0008 11.3671 15.0008 11.4999C15.0008 11.6327 14.948 11.76 14.8541 11.8539C14.7603 11.9478 14.6329 12.0005 14.5001 12.0005C14.3674 12.0005 14.24 11.9478 14.1461 11.8539L8.50014 6.20692L2.85414 11.8539C2.76026 11.9478 2.63292 12.0005 2.50014 12.0005C2.36737 12.0005 2.24003 11.9478 2.14614 11.8539C2.05226 11.76 1.99951 11.6327 1.99951 11.4999C1.99951 11.3671 2.05226 11.2398 2.14614 11.1459L8.14614 5.14592Z" fill="#E5E5E5"/>
</svg>
