<svg width="17" height="17" viewBox="0 0 17 17" fill="none" xmlns="http://www.w3.org/2000/svg">
<path fill-rule="evenodd" clip-rule="evenodd" d="M2.14592 5.14592C2.19236 5.09935 2.24754 5.06241 2.30828 5.0372C2.36903 5.012 2.43415 4.99902 2.49992 4.99902C2.56568 4.99902 2.63081 5.012 2.69155 5.0372C2.7523 5.06241 2.80747 5.09935 2.85392 5.14592L8.49992 10.7929L14.1459 5.14592C14.1924 5.09943 14.2476 5.06255 14.3083 5.03739C14.3691 5.01223 14.4342 4.99929 14.4999 4.99929C14.5657 4.99929 14.6308 5.01223 14.6915 5.03739C14.7522 5.06255 14.8074 5.09943 14.8539 5.14592C14.9004 5.1924 14.9373 5.24759 14.9624 5.30833C14.9876 5.36907 15.0005 5.43417 15.0005 5.49992C15.0005 5.56566 14.9876 5.63076 14.9624 5.6915C14.9373 5.75224 14.9004 5.80743 14.8539 5.85392L8.85392 11.8539C8.80747 11.9005 8.7523 11.9374 8.69155 11.9626C8.63081 11.9878 8.56568 12.0008 8.49992 12.0008C8.43415 12.0008 8.36903 11.9878 8.30828 11.9626C8.24754 11.9374 8.19236 11.9005 8.14592 11.8539L2.14592 5.85392C2.09935 5.80747 2.06241 5.7523 2.0372 5.69155C2.012 5.63081 1.99902 5.56568 1.99902 5.49992C1.99902 5.43415 2.012 5.36903 2.0372 5.30828C2.06241 5.24754 2.09935 5.19236 2.14592 5.14592Z" fill="#E5E5E5"/>
</svg>
