<svg width="46" height="46" viewBox="0 0 46 46" fill="none" xmlns="http://www.w3.org/2000/svg">
<path d="M15.9688 10.3438C17.0876 10.3438 18.1607 10.7882 18.9519 11.5794C19.743 12.3706 20.1875 13.4436 20.1875 14.5625V31.4375C20.1875 32.5564 19.743 33.6294 18.9519 34.4206C18.1607 35.2118 17.0876 35.6562 15.9688 35.6562C14.8499 35.6562 13.7768 35.2118 12.9856 34.4206C12.1945 33.6294 11.75 32.5564 11.75 31.4375V14.5625C11.75 13.4436 12.1945 12.3706 12.9856 11.5794C13.7768 10.7882 14.8499 10.3438 15.9688 10.3438ZM30.0312 10.3438C31.1501 10.3438 32.2232 10.7882 33.0144 11.5794C33.8055 12.3706 34.25 13.4436 34.25 14.5625V31.4375C34.25 32.5564 33.8055 33.6294 33.0144 34.4206C32.2232 35.2118 31.1501 35.6562 30.0312 35.6562C28.9124 35.6562 27.8393 35.2118 27.0481 34.4206C26.257 33.6294 25.8125 32.5564 25.8125 31.4375V14.5625C25.8125 13.4436 26.257 12.3706 27.0481 11.5794C27.8393 10.7882 28.9124 10.3438 30.0312 10.3438Z" fill="#E5E5E5"/>
</svg>
