<svg width="17" height="16" viewBox="0 0 17 16" fill="none" xmlns="http://www.w3.org/2000/svg">
<g clip-path="url(#clip0_8_77)">
<path d="M13.9998 0.999948C13.602 0.999948 13.2204 1.15798 12.9391 1.43929C12.6578 1.72059 12.4998 2.10212 12.4998 2.49995C12.4998 2.89777 12.6578 3.2793 12.9391 3.56061C13.2204 3.84191 13.602 3.99995 13.9998 3.99995C14.3976 3.99995 14.7791 3.84191 15.0604 3.56061C15.3417 3.2793 15.4998 2.89777 15.4998 2.49995C15.4998 2.10212 15.3417 1.72059 15.0604 1.43929C14.7791 1.15798 14.3976 0.999948 13.9998 0.999948ZM11.4998 2.49995C11.4997 1.91338 11.7059 1.34546 12.0822 0.895559C12.4586 0.445654 12.9812 0.142411 13.5585 0.0388849C14.1359 -0.0646415 14.7313 0.0381412 15.2405 0.32925C15.7497 0.620359 16.1404 1.08126 16.3441 1.63131C16.5479 2.18135 16.5517 2.78553 16.355 3.33812C16.1582 3.89071 15.7735 4.35654 15.268 4.65409C14.7625 4.95165 14.1685 5.06198 13.5898 4.9658C13.0112 4.86962 12.4848 4.57304 12.1028 4.12795L5.38478 7.24795C5.53915 7.7374 5.53915 8.2625 5.38478 8.75195L12.1028 11.8719C12.5066 11.4023 13.0704 11.0993 13.685 11.0216C14.2995 10.9439 14.921 11.0972 15.429 11.4516C15.9369 11.8061 16.2952 12.3365 16.4344 12.9401C16.5736 13.5436 16.4838 14.1774 16.1824 14.7185C15.8809 15.2596 15.3893 15.6696 14.8029 15.8689C14.2164 16.0682 13.5768 16.0427 13.0081 15.7974C12.4393 15.552 11.9819 15.1042 11.7245 14.5408C11.4671 13.9774 11.428 13.3385 11.6148 12.7479L4.89678 9.62795C4.56421 10.0155 4.12093 10.2919 3.62656 10.42C3.13218 10.5481 2.61044 10.5217 2.13152 10.3444C1.65259 10.1671 1.23945 9.84738 0.947684 9.42824C0.655916 9.00909 0.499512 8.51064 0.499512 7.99995C0.499512 7.48925 0.655916 6.99081 0.947684 6.57166C1.23945 6.15252 1.65259 5.83278 2.13152 5.65547C2.61044 5.47816 3.13218 5.45177 3.62656 5.57986C4.12093 5.70795 4.56421 5.98438 4.89678 6.37195L11.6148 3.25195C11.5383 3.00862 11.4995 2.75501 11.4998 2.49995ZM2.99978 6.49995C2.60195 6.49995 2.22042 6.65798 1.93912 6.93929C1.65781 7.22059 1.49978 7.60212 1.49978 7.99995C1.49978 8.39777 1.65781 8.7793 1.93912 9.06061C2.22042 9.34191 2.60195 9.49995 2.99978 9.49995C3.3976 9.49995 3.77913 9.34191 4.06044 9.06061C4.34174 8.7793 4.49978 8.39777 4.49978 7.99995C4.49978 7.60212 4.34174 7.22059 4.06044 6.93929C3.77913 6.65798 3.3976 6.49995 2.99978 6.49995ZM13.9998 11.9999C13.602 11.9999 13.2204 12.158 12.9391 12.4393C12.6578 12.7206 12.4998 13.1021 12.4998 13.4999C12.4998 13.8978 12.6578 14.2793 12.9391 14.5606C13.2204 14.8419 13.602 14.9999 13.9998 14.9999C14.3976 14.9999 14.7791 14.8419 15.0604 14.5606C15.3417 14.2793 15.4998 13.8978 15.4998 13.4999C15.4998 13.1021 15.3417 12.7206 15.0604 12.4393C14.7791 12.158 14.3976 11.9999 13.9998 11.9999Z" fill="#E5E5E5"/>
</g>
<defs>
<clipPath id="clip0_8_77">
<rect width="16" height="16" fill="white" transform="translate(0.5)"/>
</clipPath>
</defs>
</svg>
